<svg width="63" height="63" version="1.1" viewBox="0 0 63 63" xmlns="http://www.w3.org/2000/svg">
    <symbol id="icon-search" viewBox="0 0 60 60">
        <title>Search magnifying glass</title>
        <path d="M68.76,61.15,51.5,45.87a5.92,5.92,0,0,0-4-1.75,21,21,0,1,0-2.35,2.35,5.92,5.92,0,0,0,1.75,4L62.16,67.76a4.7,4.7,0,1,0,6.61-6.61ZM31.5,46.5a16,16,0,1,1,16-16A16,16,0,0,1,31.5,46.5Z"
              transform="translate(-10.5 -9.5)"/>
    </symbol>
    <symbol id="icon-arrow-right" viewBox="0 0 19 13">
        <title>Arrow pointing right</title>
        <path d="M12.8562 0.951172L17.9187 6.01367C18.0242 6.11914 18.0945 6.25977 18.0945 6.40039C18.0945 6.50586 18.0242 6.68164 17.9187 6.78711L12.8562 11.8496C12.6453 12.0605 12.2585 12.0605 12.0476 11.8496C11.8367 11.6387 11.8367 11.2871 12.0476 11.041L16.1609 6.96289H0.656982C0.340576 6.96289 0.0944824 6.68164 0.0944824 6.40039C0.0944824 6.11914 0.340576 5.83789 0.656982 5.83789H16.1609L12.0476 1.75977C11.8367 1.54883 11.8367 1.16211 12.0476 0.951172C12.2585 0.740234 12.6453 0.740234 12.8562 0.951172Z"/>
    </symbol>
    <symbol id="icon-arrow-left" viewBox="0 0 20 13">
        <title>Arrow pointing left</title>
        <path d="M5.82031 0.345215L0.195312 5.97021C0.078125 6.0874 0 6.24365 0 6.3999C0 6.51709 0.078125 6.7124 0.195312 6.82959L5.82031 12.4546C6.05469 12.689 6.48438 12.689 6.71875 12.4546C6.95312 12.2202 6.95312 11.8296 6.71875 11.5562L2.14844 7.0249H19.375C19.7266 7.0249 20 6.7124 20 6.3999C20 6.0874 19.7266 5.7749 19.375 5.7749H2.14844L6.71875 1.24365C6.95312 1.00928 6.95312 0.57959 6.71875 0.345215C6.48438 0.11084 6.05469 0.11084 5.82031 0.345215Z"/>
    </symbol>
    <symbol id="icon-chevron-right" viewBox="0 0 20 20">
        <title>Chevron right</title>
        <path d="M9.163 4.516c0.418 0.408 4.502 4.695 4.502 4.695 0.223 0.219 0.335 0.504 0.335 0.789s-0.112 0.57-0.335 0.787c0 0-4.084 4.289-4.502 4.695-0.418 0.408-1.17 0.436-1.615 0-0.446-0.434-0.481-1.041 0-1.574l3.747-3.908-3.747-3.908c-0.481-0.533-0.446-1.141 0-1.576s1.197-0.409 1.615 0z"></path>
    </symbol>
    <symbol id="icon-chevron-left" viewBox="0 0 20 20">
        <title>Chevron left</title>
        <path d="M12.452 4.516c0.446 0.436 0.481 1.043 0 1.576l-3.747 3.908 3.747 3.908c0.481 0.533 0.446 1.141 0 1.574-0.445 0.436-1.197 0.408-1.615 0-0.418-0.406-4.502-4.695-4.502-4.695-0.223-0.217-0.335-0.502-0.335-0.787s0.112-0.57 0.335-0.789c0 0 4.084-4.287 4.502-4.695s1.17-0.436 1.615 0z"></path>
    </symbol>
    <symbol id="icon-chevron-down" viewBox="0 0 20 20">
        <title>Chevron down</title>
        <path d="M4.516 7.548c0.436-0.446 1.043-0.481 1.576 0l3.908 3.747 3.908-3.747c0.533-0.481 1.141-0.446 1.574 0 0.436 0.445 0.408 1.197 0 1.615-0.406 0.418-4.695 4.502-4.695 4.502-0.217 0.223-0.502 0.335-0.787 0.335s-0.57-0.112-0.789-0.335c0 0-4.287-4.084-4.695-4.502s-0.436-1.17 0-1.615z"></path>
    </symbol>
    <symbol id="icon-chevron-up" viewBox="0 0 20 20">
        <title>Chevron up</title>
        <path d="M15.484 12.452c-0.436 0.446-1.043 0.481-1.576 0l-3.908-3.747-3.908 3.747c-0.533 0.481-1.141 0.446-1.574 0-0.436-0.445-0.408-1.197 0-1.615 0.406-0.418 4.695-4.502 4.695-4.502 0.217-0.223 0.502-0.335 0.787-0.335s0.57 0.112 0.789 0.335c0 0 4.287 4.084 4.695 4.502s0.436 1.17 0 1.615z"></path>
    </symbol>
    <symbol id="icon-facebook" viewBox="0 0 1792 1792">
        <title>Facebook Logo</title>
        <path d="M1343 12v264h-157q-86 0-116 36t-30 108v189h293l-39 296h-254v759h-306v-759h-255v-296h255v-218q0-186 104-288.5t277-102.5q147 0 228 12z"/>
    </symbol>
    <symbol id="icon-twitter" viewBox="0 0 1792 1792">
        <title>Twitter Logo</title>
        <path d="M1684 408q-67 98-162 167 1 14 1 42 0 130-38 259.5t-115.5 248.5-184.5 210.5-258 146-323 54.5q-271 0-496-145 35 4 78 4 225 0 401-138-105-2-188-64.5t-114-159.5q33 5 61 5 43 0 85-11-112-23-185.5-111.5t-73.5-205.5v-4q68 38 146 41-66-44-105-115t-39-154q0-88 44-163 121 149 294.5 238.5t371.5 99.5q-8-38-8-74 0-134 94.5-228.5t228.5-94.5q140 0 236 102 109-21 205-78-37 115-142 178 93-10 186-50z"/>
    </symbol>
    <symbol id="icon-linkedin" viewBox="0 0 1792 1792">
        <title>Linkedin Logo</title>
        <path d="M477 625v991h-330v-991h330zm21-306q1 73-50.5 122t-135.5 49h-2q-82 0-132-49t-50-122q0-74 51.5-122.5t134.5-48.5 133 48.5 51 122.5zm1166 729v568h-329v-530q0-105-40.5-164.5t-126.5-59.5q-63 0-105.5 34.5t-63.5 85.5q-11 30-11 81v553h-329q2-399 2-647t-1-296l-1-48h329v144h-2q20-32 41-56t56.5-52 87-43.5 114.5-15.5q171 0 275 113.5t104 332.5z"/>
    </symbol>
    <symbol id="icon-instagram" viewBox="0 0 48 48">
        <title>Instagram Logo</title>
        <path d="M 24 0 A 24 24 0 0 0 0 24 A 24 24 0 0 0 24 48 A 24 24 0 0 0 48 24 A 24 24 0 0 0 24 0 z M 16.800781 12.300781 L 31.199219 12.300781 C 33.699219 12.300781 35.699219 14.300781 35.699219 16.800781 L 35.699219 21.599609 L 35.699219 31.199219 C 35.699219 33.699219 33.699219 35.699219 31.199219 35.699219 L 16.800781 35.699219 C 14.300781 35.699219 12.300781 33.699219 12.300781 31.199219 L 12.300781 21.599609 L 12.300781 16.800781 C 12.300781 14.300781 14.300781 12.300781 16.800781 12.300781 z M 29 15 L 29 19 L 33 19 L 33 15.5 L 33 15 L 32.5 15 L 29 15 z M 24 19.900391 C 22.7 19.900391 21.399219 20.599609 20.699219 21.599609 C 20.199219 22.299609 19.900391 23.1 19.900391 24 C 19.900391 26.3 21.8 28.099609 24 28.099609 C 26.2 28.099609 28.099609 26.3 28.099609 24 C 28.099609 23.1 27.800781 22.299609 27.300781 21.599609 C 26.600781 20.599609 25.3 19.900391 24 19.900391 z M 14.599609 21.599609 L 14.599609 31.199219 C 14.599609 32.399219 15.600781 33.400391 16.800781 33.400391 L 31.199219 33.400391 C 32.399219 33.400391 33.400391 32.399219 33.400391 31.199219 L 33.400391 21.599609 L 29.900391 21.599609 C 30.200391 22.299609 30.400391 23.2 30.400391 24 C 30.400391 27.5 27.5 30.400391 24 30.400391 C 20.5 30.400391 17.599609 27.5 17.599609 24 C 17.599609 23.2 17.799609 22.299609 18.099609 21.599609 L 14.599609 21.599609 z ">
        </path>
    </symbol>
    <symbol id="icon-rss" viewBox="0 0 1792 1792">
        <title>RSS Logo</title>
        <path d="M576 1344q0 80-56 136t-136 56-136-56-56-136 56-136 136-56 136 56 56 136zm512 123q2 28-17 48-18 21-47 21h-135q-25 0-43-16.5t-20-41.5q-22-229-184.5-391.5t-391.5-184.5q-25-2-41.5-20t-16.5-43v-135q0-29 21-47 17-17 43-17h5q160 13 306 80.5t259 181.5q114 113 181.5 259t80.5 306zm512 2q2 27-18 47-18 20-46 20h-143q-26 0-44.5-17.5t-19.5-42.5q-12-215-101-408.5t-231.5-336-336-231.5-408.5-102q-25-1-42.5-19.5t-17.5-43.5v-143q0-28 20-46 18-18 44-18h3q262 13 501.5 120t425.5 294q187 186 294 425.5t120 501.5z"/>
    </symbol>
    <symbol id="icon-circle-right" viewBox="0 0 16 16" fill="none">
        <title>Circle Right</title>
        <path fill-rule="evenodd" clip-rule="evenodd"
              d="M8.00001 1.77772C4.56357 1.77772 1.77778 4.56351 1.77778 7.99995C1.77778 11.4364 4.56357 14.2222 8.00001 14.2222C11.4364 14.2222 14.2222 11.4364 14.2222 7.99995C14.2222 4.56351 11.4364 1.77772 8.00001 1.77772ZM0.222229 7.99995C0.222229 3.7044 3.70446 0.222168 8.00001 0.222168C12.2956 0.222168 15.7778 3.7044 15.7778 7.99995C15.7778 12.2955 12.2956 15.7777 8.00001 15.7777C3.70446 15.7777 0.222229 12.2955 0.222229 7.99995ZM8.22781 5.11664C8.53155 4.8129 9.02402 4.8129 9.32776 5.11664L11.6611 7.44997C11.807 7.59583 11.8889 7.79367 11.8889 7.99995C11.8889 8.20622 11.807 8.40406 11.6611 8.54992L9.32776 10.8833C9.02402 11.187 8.53155 11.187 8.22781 10.8833C7.92407 10.5795 7.92407 10.087 8.22781 9.78331L9.2334 8.77772H4.8889C4.45934 8.77772 4.11112 8.4295 4.11112 7.99995C4.11112 7.57039 4.45934 7.22217 4.8889 7.22217H9.2334L8.22781 6.21658C7.92407 5.91284 7.92407 5.42038 8.22781 5.11664Z"
              fill="#0A64EB"/>
    </symbol>
    <symbol id="icon-close" viewBox="0 0 10 10" fill="none">
        <title>Close X</title>
        <path d="M1 10L0 9L4 5L0 1L1 0L5 4L9 0L10 1L6 5L10 9L9 10L5 6L1 10Z" fill="#001724"/>
    </symbol>
    <symbol id="icon-circle-minus" viewBox="0 0 25 26">
        <title>Minus Circle</title>
        <path d="M5.55556 13.3595V11.8163H19.4444V13.3595H5.55556Z"/>
        <path fill-rule="evenodd" clip-rule="evenodd"
              d="M12.5 23.699C18.6365 23.699 23.6111 18.7244 23.6111 12.5879C23.6111 6.45139 18.6365 1.47678 12.5 1.47678C6.3635 1.47678 1.38889 6.45139 1.38889 12.5879C1.38889 18.7244 6.3635 23.699 12.5 23.699ZM12.5 25.0879C19.4036 25.0879 25 19.4914 25 12.5879C25 5.68433 19.4036 0.0878906 12.5 0.0878906C5.59644 0.0878906 0 5.68433 0 12.5879C0 19.4914 5.59644 25.0879 12.5 25.0879Z"/>
    </symbol>
    <symbol id="icon-circle-plus" viewBox="0 0 25 26">
        <title>Plus Circle</title>
        <path d="M13.2716 19.7589H11.7284V13.5861H5.55556V12.0428H11.7284V5.87001L13.2716 5.87001V12.0428H19.4444V13.5861H13.2716V19.7589Z"/>
        <path fill-rule="evenodd" clip-rule="evenodd"
              d="M12.5 23.9256C18.6365 23.9256 23.6111 18.9509 23.6111 12.8145C23.6111 6.67796 18.6365 1.70334 12.5 1.70334C6.3635 1.70334 1.38889 6.67796 1.38889 12.8145C1.38889 18.9509 6.3635 23.9256 12.5 23.9256ZM12.5 25.3145C19.4036 25.3145 25 19.718 25 12.8145C25 5.91089 19.4036 0.314453 12.5 0.314453C5.59644 0.314453 0 5.91089 0 12.8145C0 19.718 5.59644 25.3145 12.5 25.3145Z"/>
    </symbol>
    <symbol id="icon-circle-arrow-right" viewBox="0 0 29 29" xmlns="http://www.w3.org/2000/svg">
        <title>Arrow Right Circle</title>
        <path fill-rule="evenodd" clip-rule="evenodd"
              d="M14.5002 3.38886C8.36372 3.38886 3.38911 8.36348 3.38911 14.5C3.38911 20.6365 8.36372 25.6111 14.5002 25.6111C20.6367 25.6111 25.6113 20.6365 25.6113 14.5C25.6113 8.36348 20.6367 3.38886 14.5002 3.38886ZM0.611328 14.5C0.611328 6.82935 6.8296 0.611084 14.5002 0.611084C22.1708 0.611084 28.3891 6.82935 28.3891 14.5C28.3891 22.1706 22.1708 28.3889 14.5002 28.3889C6.8296 28.3889 0.611328 22.1706 0.611328 14.5ZM14.907 9.35121C15.4494 8.80882 16.3288 8.80882 16.8712 9.35121L21.0379 13.5179C21.2983 13.7783 21.4447 14.1316 21.4447 14.5C21.4447 14.8683 21.2983 15.2216 21.0379 15.4821L16.8712 19.6487C16.3288 20.1911 15.4494 20.1911 14.907 19.6487C14.3646 19.1063 14.3646 18.2269 14.907 17.6845L16.7027 15.8889L8.94466 15.8889C8.1776 15.8889 7.55577 15.267 7.55577 14.5C7.55577 13.7329 8.1776 13.1111 8.94466 13.1111H16.7027L14.907 11.3154C14.3646 10.773 14.3646 9.89361 14.907 9.35121Z"/>
    </symbol>
</svg>
